<svg width="24" height="24" viewBox="0 0 24 24" stroke="currentColor" fill="none" xmlns="http://www.w3.org/2000/svg">
<path d="M13.8358 6.16406L17.8358 10.1641M4.33582 19.6641H8.33582L18.8358 9.16412C19.0985 8.90148 19.3068 8.58967 19.4489 8.24651C19.5911 7.90335 19.6642 7.53556 19.6642 7.16412C19.6642 6.79269 19.5911 6.42489 19.4489 6.08173C19.3068 5.73857 19.0985 5.42676 18.8358 5.16412C18.5732 4.90148 18.2614 4.69314 17.9182 4.55099C17.575 4.40885 17.2072 4.33569 16.8358 4.33569C16.4644 4.33569 16.0966 4.40885 15.7534 4.55099C15.4103 4.69314 15.0985 4.90148 14.8358 5.16412L4.33582 15.6641V19.6641Z" stroke-width="2" stroke-linecap="round" stroke-linejoin="round"/>
</svg>
